{"title":"Pitbull Ft. Christina Aguilera - Feel This Moment [Music Video] ","uid":8381660,"size":144046690,"categoryP":"video","categoryS":"music_videos","magnet":"?xt=urn:btih:daae8da76bc1e85b4ed4026fbcbfe2e2327e7596&amp;dn=Pitbull+Ft.+Christina+Aguilera+-+Feel+This+Moment+%5BMusic+Video%5D+&amp;tr=udp%3A%2F%2Ftracker.openbittorrent.com%3A80&amp;tr=udp%3A%2F%2Fopen.demonii.com%3A1337&amp;tr=udp%3A%2F%2Ftracker.coppersurfer.tk%3A6969&amp;tr=udp%3A%2F%2Fexodus.desync.com%3A6969","seeders":7,"leechers":0,"uploader":"Sbyky","files":-1,"time":1366187558,"description":"[IMG]http://www.shotpix.com/images/37035391992248503851.jpg[/IMG]\n\nGeneral\nComplete name                            : Pitbull Ft. Christina Aguilera - Feel This Moment [Music Video] 1080p [Sbyky].mp4\nFormat                                   : MPEG-4\nFormat profile                           : Base Media / Version 2\nCodec ID                                 : mp42\nFile size                                : 137 MiB\nDuration                                 : 3mn 56s\nOverall bit rate mode                    : Variable\nOverall bit rate                         : 4 878 Kbps\nEncoded date                             : UTC 2013-04-08 02:46:26\nTagged date                              : UTC 2013-04-08 02:46:26\n\nVideo\nID                                       : 1\nFormat                                   : AVC\nFormat/Info                              : Advanced Video Codec\nFormat profile                           : &lt;a class=&quot;__cf_email__&quot; href=&quot;/cdn-cgi/l/email-protection&quot; data-cfemail=&quot;733b1a141b333f475d43&quot;&gt;[email&amp;#160;protected]&lt;/a&gt;&lt;script cf-hash='f9e31' type=&quot;text/javascript&quot;&gt;\n/* &lt;![CDATA[ */!function(){try{var t=&quot;currentScript&quot;in document?document.currentScript:function(){for(var t=document.getElementsByTagName(&quot;script&quot;),e=t.length;e--;)if(t[e].getAttribute(&quot;cf-hash&quot;))return t[e]}();if(t&amp;&amp;t.previousSibling){var e,r,n,i,c=t.previousSibling,a=c.getAttribute(&quot;data-cfemail&quot;);if(a){for(e=&quot;&quot;,r=parseInt(a.substr(0,2),16),n=2;a.length-n;n+=2)i=parseInt(a.substr(n,2),16)^r,e+=String.fromCharCode(i);e=document.createTextNode(e),c.parentNode.replaceChild(e,c)}}}catch(u){}}();/* ]]&gt; */&lt;/script&gt;\nFormat settings, CABAC                   : Yes\nFormat settings, ReFrames                : 1 frame\nCodec ID                                 : avc1\nCodec ID/Info                            : Advanced Video Coding\nDuration                                 : 3mn 56s\nBit rate                                 : 4 684 Kbps\nMaximum bit rate                         : 15.5 Mbps\nWidth                                    : 1 920 pixels\nHeight                                   : 1 080 pixels\nDisplay aspect ratio                     : 16:9\nFrame rate mode                          : Constant\nFrame rate                               : 23.976 fps\nColor space                              : YUV\nChroma subsampling                       : 4:2:0\nBit depth                                : 8 bits\nScan type                                : Progressive\nBits/(Pixel*Frame)                       : 0.094\nStream size                              : 132 MiB (96%)\nTagged date                              : UTC 2013-04-08 02:47:22\n\nAudio\nID                                       : 2\nFormat                                   : AAC\nFormat/Info                              : Advanced Audio Codec\nFormat profile                           : LC\nCodec ID                                 : 40\nDuration                                 : 3mn 56s\nBit rate mode                            : Variable\nBit rate                                 : 192 Kbps\nMaximum bit rate                         : 201 Kbps\nChannel(s)                               : 2 channels\nChannel positions                        : Front: L R\nSampling rate                            : 44.1 KHz\nCompression mode                         : Lossy\nStream size                              : 5.41 MiB (4%)\nTitle                                    : IsoMedia File Produced by Google, 5-11-2011\nEncoded date                             : UTC 2013-04-08 02:47:08\nTagged date                              : UTC 2013-04-08 02:47:22\n\nShared By Sbyky\n[IMG]http://www.shotpix.com/images/76014917432015785852.gif[/IMG]\n[IMG]http://www.shotpix.com/images/54100788659511547411.gif[/IMG]","torrent":{"xt":"urn:btih:daae8da76bc1e85b4ed4026fbcbfe2e2327e7596","amp;dn":"Pitbull+Ft.+Christina+Aguilera+-+Feel+This+Moment+%5BMusic+Video%5D+","amp;tr":["udp%3A%2F%2Ftracker.openbittorrent.com%3A80","udp%3A%2F%2Fopen.demonii.com%3A1337","udp%3A%2F%2Ftracker.coppersurfer.tk%3A6969","udp%3A%2F%2Fexodus.desync.com%3A6969"],"infoHash":"daae8da76bc1e85b4ed4026fbcbfe2e2327e7596","infoHashBuffer":{"type":"Buffer","data":[218,174,141,167,107,193,232,91,78,212,2,111,188,191,226,226,50,126,117,150]},"announce":[],"urlList":[]}}